# xmcd
#
# Track frame offsets: 
#        150
#        17640
#        38460
#        55487
#        79865
#        89260
#        112795
#        137152
#        164347
#        182815
#        200832
#        218262
#        233102
#        248455
#        272690
#        288950
#
# Disc length: 3993 seconds
#
# Revision: 0
# Processed by: cddbd v1.4PL0 Copyright (c) Steve Scherf et al.
# Submitted via: ExactAudioCopy v0.90b4
#
DISCID=d00f9710
DTITLE=Muddy Waters - King of the Electric Blues
DYEAR=1900
DGENRE=Blues
TTITLE0=I'm a King Bee
TTITLE1=Champagne and Reefer
TTITLE2=Mean Old Frisco Blues
TTITLE3=Sad Sad Day
TTITLE4=No Escape From the Blues
TTITLE5=She's Nineteen Years Old
TTITLE6=Nine Below Zero
TTITLE7=Howlling Wolf
TTITLE8=Baby Please Don't Go
TTITLE9=I'm Your Hoochie Coochie Man
TTITLE10=Rock Me
TTITLE11=Good Morning Little School Girl
TTITLE12=I'm Ready
TTITLE13=Mannish Boy
TTITLE14=The Blues Had a Baby and They Called it Rock and Roll
TTITLE15=?
EXTD=
EXTT0=
EXTT1=
EXTT2=
EXTT3=
EXTT4=
EXTT5=
EXTT6=
EXTT7=
EXTT8=
EXTT9=
EXTT10=
EXTT11=
EXTT12=
EXTT13=
EXTT14=
EXTT15=
PLAYORDER=
